REM DIRINDEX 1\4,1\2\5,1\2\6,1\3\7,1\3\8
REM DIRNAME folder01,folder02,folder03,folder04,folder05,folder06,folder07,folder08
TITLE ""
FILE "001_Day01_Check2_Phrases.mp3" MP3
  TRACK 01 AUDIO
    TITLE "0:"
    INDEX 01 00:00:00
  TRACK 02 AUDIO
    TITLE "4:cjc124_0001"
    INDEX 01 00:00:31
  TRACK 03 AUDIO
    TITLE "0:"
    INDEX 01 00:01:46
  TRACK 04 AUDIO
    TITLE "5:cjc124_0002"
    INDEX 01 00:02:04
  TRACK 05 AUDIO
    TITLE "0:"
    INDEX 01 00:03:66
  TRACK 06 AUDIO
    TITLE "6:cjc124_0003"
    INDEX 01 00:04:07
  TRACK 07 AUDIO
    TITLE "0:"
    INDEX 01 00:05:73
  TRACK 08 AUDIO
    TITLE "5:cjc124_0004"
    INDEX 01 00:06:33
  TRACK 09 AUDIO
    TITLE "0:"
    INDEX 01 00:08:19
  TRACK 10 AUDIO
    TITLE "6:cjc124_0005"
    INDEX 01 00:08:34
  TRACK 11 AUDIO
    TITLE "0:"
    INDEX 01 00:09:69
  TRACK 12 AUDIO
    TITLE "5:cjc124_0006"
    INDEX 01 00:10:35
  TRACK 13 AUDIO
    TITLE "0:"
    INDEX 01 00:12:09
  TRACK 14 AUDIO
    TITLE "6:cjc124_0007"
    INDEX 01 00:12:30
  TRACK 15 AUDIO
    TITLE "0:"
    INDEX 01 00:13:63
  TRACK 16 AUDIO
    TITLE "5:cjc124_0008"
    INDEX 01 00:14:27
  TRACK 17 AUDIO
    TITLE "0:"
    INDEX 01 00:16:06
  TRACK 18 AUDIO
    TITLE "6:cjc124_0009"
    INDEX 01 00:16:24
  TRACK 19 AUDIO
    TITLE "0:"
    INDEX 01 00:18:15
  TRACK 20 AUDIO
    TITLE "5:cjc124_0010"
    INDEX 01 00:18:52
  TRACK 21 AUDIO
    TITLE "0:"
    INDEX 01 00:20:39
  TRACK 22 AUDIO
    TITLE "6:cjc124_0011"
    INDEX 01 00:20:59
  TRACK 23 AUDIO
    TITLE "0:"
    INDEX 01 00:22:42
  TRACK 24 AUDIO
    TITLE "5:cjc124_0012"
    INDEX 01 00:23:06
  TRACK 25 AUDIO
    TITLE "0:"
    INDEX 01 00:24:67
  TRACK 26 AUDIO
    TITLE "6:cjc124_0013"
    INDEX 01 00:25:13
  TRACK 27 AUDIO
    TITLE "0:"
    INDEX 01 00:26:60
  TRACK 28 AUDIO
    TITLE "5:cjc124_0014"
    INDEX 01 00:27:24
  TRACK 29 AUDIO
    TITLE "0:"
    INDEX 01 00:29:09
  TRACK 30 AUDIO
    TITLE "6:cjc124_0015"
    INDEX 01 00:29:23
  TRACK 31 AUDIO
    TITLE "0:"
    INDEX 01 00:30:30
  TRACK 32 AUDIO
    TITLE "5:cjc124_0016"
    INDEX 01 00:30:67
  TRACK 33 AUDIO
    TITLE "0:"
    INDEX 01 00:32:39
  TRACK 34 AUDIO
    TITLE "6:cjc124_0017"
    INDEX 01 00:32:56
  TRACK 35 AUDIO
    TITLE "0:"
    INDEX 01 00:34:57
  TRACK 36 AUDIO
    TITLE "5:cjc124_0018"
    INDEX 01 00:35:19
  TRACK 37 AUDIO
    TITLE "0:"
    INDEX 01 00:37:08
  TRACK 38 AUDIO
    TITLE "6:cjc124_0019"
    INDEX 01 00:37:26
  TRACK 39 AUDIO
    TITLE "0:"
    INDEX 01 00:38:73
  TRACK 40 AUDIO
    TITLE "5:cjc124_0020"
    INDEX 01 00:39:35
  TRACK 41 AUDIO
    TITLE "0:"
    INDEX 01 00:41:28
  TRACK 42 AUDIO
    TITLE "6:cjc124_0021"
    INDEX 01 00:41:44
  TRACK 43 AUDIO
    TITLE "0:"
    INDEX 01 00:43:09
  TRACK 44 AUDIO
    TITLE "5:cjc124_0022"
    INDEX 01 00:43:46
  TRACK 45 AUDIO
    TITLE "0:"
    INDEX 01 00:45:39
  TRACK 46 AUDIO
    TITLE "6:cjc124_0023"
    INDEX 01 00:45:57
  TRACK 47 AUDIO
    TITLE "0:"
    INDEX 01 00:47:21
  TRACK 48 AUDIO
    TITLE "5:cjc124_0024"
    INDEX 01 00:47:58
  TRACK 49 AUDIO
    TITLE "0:"
    INDEX 01 00:49:67
  TRACK 50 AUDIO
    TITLE "6:cjc124_0025"
    INDEX 01 00:50:09
  TRACK 51 AUDIO
    TITLE "0:"
    INDEX 01 00:51:54
  TRACK 52 AUDIO
    TITLE "5:cjc124_0026"
    INDEX 01 00:52:18
  TRACK 53 AUDIO
    TITLE "0:"
    INDEX 01 00:54:09
  TRACK 54 AUDIO
    TITLE "6:cjc124_0027"
    INDEX 01 00:54:32
  TRACK 55 AUDIO
    TITLE "0:"
    INDEX 01 00:56:25
  TRACK 56 AUDIO
    TITLE "5:cjc124_0028"
    INDEX 01 00:56:63
  TRACK 57 AUDIO
    TITLE "0:"
    INDEX 01 00:58:42
  TRACK 58 AUDIO
    TITLE "6:cjc124_0029"
    INDEX 01 00:58:62
  TRACK 59 AUDIO
    TITLE "0:"
    INDEX 01 01:00:19
  TRACK 60 AUDIO
    TITLE "5:cjc124_0030"
    INDEX 01 01:00:57
  TRACK 61 AUDIO
    TITLE "0:"
    INDEX 01 01:02:34
  TRACK 62 AUDIO
    TITLE "6:cjc124_0031"
    INDEX 01 01:02:50
  TRACK 63 AUDIO
    TITLE "0:"
    INDEX 01 01:04:11
  TRACK 64 AUDIO
    TITLE "5:cjc124_0032"
    INDEX 01 01:04:47
  TRACK 65 AUDIO
    TITLE "0:"
    INDEX 01 01:06:30
  TRACK 66 AUDIO
    TITLE "6:cjc124_0033"
    INDEX 01 01:06:49
  TRACK 67 AUDIO
    TITLE "0:"
    INDEX 01 01:08:31
